<svg width="1600" height="1600" viewBox="0 0 1600 1600" xmlns="http://www.w3.org/2000/svg">
<defs>
  <radialGradient id="space" cx="0.5" cy="0.5" r="0.62">
    <stop offset="0" stop-color="#0c1230"/>
    <stop offset="0.5" stop-color="#05070f"/>
    <stop offset="1" stop-color="#010208"/>
  </radialGradient>
  <radialGradient id="core" cx="0.5" cy="0.5" r="0.5">
    <stop offset="0" stop-color="#3858b0" stop-opacity="0.55"/>
    <stop offset="1" stop-color="#3858b0" stop-opacity="0"/>
  </radialGradient>
  <filter id="g1" x="-80%" y="-80%" width="260%" height="260%"><feGaussianBlur stdDeviation="3"/></filter>
  <filter id="g2" x="-120%" y="-120%" width="340%" height="340%"><feGaussianBlur stdDeviation="9"/></filter>
  <filter id="g3" x="-200%" y="-200%" width="500%" height="500%"><feGaussianBlur stdDeviation="22"/></filter>
</defs>
<rect width="1600" height="1600" fill="#010208"/>
<rect y="480" width="1600" height="640" fill="url(#space)"/>
<ellipse cx="800" cy="712" rx="430" ry="280" fill="url(#core)"/>
<g><circle cx="518.1" cy="569.6" r="0.80" fill="#9fb0e6" opacity="0.20"/><circle cx="150.6" cy="854.6" r="1.20" fill="#cdd8ff" opacity="0.30"/><circle cx="693.8" cy="516.1" r="0.50" fill="#9fb0e6" opacity="0.45"/><circle cx="198.1" cy="617.3" r="0.80" fill="#9fb0e6" opacity="0.81"/><circle cx="936.9" cy="502.7" r="0.50" fill="#cdd8ff" opacity="0.54"/><circle cx="463.4" cy="565.2" r="0.50" fill="#cdd8ff" opacity="0.37"/><circle cx="164.9" cy="847.0" r="0.50" fill="#cdd8ff" opacity="0.22"/><circle cx="850.8" cy="983.0" r="0.80" fill="#a9c0ff" opacity="0.80"/><circle cx="479.6" cy="994.3" r="0.80" fill="#9fb0e6" opacity="0.32"/><circle cx="480.4" cy="796.8" r="0.50" fill="#9fb0e6" opacity="0.46"/><circle cx="1568.3" cy="547.9" r="0.80" fill="#cdd8ff" opacity="0.68"/><circle cx="1493.2" cy="748.3" r="1.80" fill="#9fb0e6" opacity="0.20"/><circle cx="916.8" cy="1047.8" r="0.50" fill="#9fb0e6" opacity="0.64"/><circle cx="794.7" cy="995.9" r="0.50" fill="#a9c0ff" opacity="0.22"/><circle cx="1122.4" cy="897.1" r="1.20" fill="#ffffff" opacity="0.35"/><circle cx="1419.3" cy="699.0" r="1.80" fill="#9fb0e6" opacity="0.40"/><circle cx="187.4" cy="508.9" r="1.20" fill="#cdd8ff" opacity="0.24"/><circle cx="636.6" cy="1075.1" r="0.80" fill="#ffffff" opacity="0.27"/><circle cx="879.1" cy="1053.0" r="1.20" fill="#a9c0ff" opacity="0.75"/><circle cx="1130.2" cy="1121.1" r="0.80" fill="#cdd8ff" opacity="0.42"/><circle cx="241.5" cy="586.3" r="0.50" fill="#ffffff" opacity="0.31"/><circle cx="1329.7" cy="590.3" r="0.50" fill="#9fb0e6" opacity="0.25"/><circle cx="590.8" cy="843.8" r="0.80" fill="#9fb0e6" opacity="0.51"/><circle cx="1047.9" cy="958.3" r="0.80" fill="#9fb0e6" opacity="0.76"/><circle cx="627.8" cy="733.3" r="0.50" fill="#cdd8ff" opacity="0.33"/><circle cx="305.0" cy="1119.9" r="0.80" fill="#9fb0e6" opacity="0.23"/><circle cx="84.1" cy="470.2" r="0.50" fill="#a9c0ff" opacity="0.22"/><circle cx="982.0" cy="516.4" r="0.50" fill="#a9c0ff" opacity="0.41"/><circle cx="1528.7" cy="867.5" r="0.80" fill="#ffffff" opacity="0.23"/><circle cx="1589.0" cy="777.6" r="0.80" fill="#cdd8ff" opacity="0.21"/><circle cx="1199.5" cy="958.6" r="0.80" fill="#9fb0e6" opacity="0.63"/><circle cx="37.0" cy="1097.7" r="0.80" fill="#9fb0e6" opacity="0.25"/><circle cx="1462.6" cy="970.4" r="0.50" fill="#cdd8ff" opacity="0.60"/><circle cx="1113.9" cy="642.3" r="0.50" fill="#cdd8ff" opacity="0.27"/><circle cx="852.1" cy="984.2" r="0.50" fill="#cdd8ff" opacity="0.31"/><circle cx="1289.7" cy="1010.1" r="0.80" fill="#9fb0e6" opacity="0.31"/><circle cx="788.5" cy="952.5" r="1.80" fill="#ffffff" opacity="0.70"/><circle cx="414.7" cy="927.1" r="1.80" fill="#a9c0ff" opacity="0.46"/><circle cx="1528.0" cy="710.7" r="0.50" fill="#cdd8ff" opacity="0.31"/><circle cx="540.4" cy="788.6" r="1.80" fill="#cdd8ff" opacity="0.58"/><circle cx="767.2" cy="901.0" r="0.50" fill="#ffffff" opacity="0.61"/><circle cx="1251.7" cy="965.1" r="0.80" fill="#a9c0ff" opacity="0.27"/><circle cx="138.8" cy="1094.5" r="0.80" fill="#cdd8ff" opacity="0.47"/><circle cx="1159.7" cy="582.2" r="0.50" fill="#ffffff" opacity="0.26"/><circle cx="1290.4" cy="566.5" r="1.20" fill="#a9c0ff" opacity="0.84"/><circle cx="249.5" cy="831.9" r="0.50" fill="#cdd8ff" opacity="0.71"/><circle cx="842.5" cy="1086.2" r="0.80" fill="#cdd8ff" opacity="0.76"/><circle cx="44.8" cy="610.4" r="0.80" fill="#a9c0ff" opacity="0.68"/><circle cx="415.0" cy="746.5" r="0.50" fill="#a9c0ff" opacity="0.79"/><circle cx="1436.3" cy="907.2" r="1.20" fill="#9fb0e6" opacity="0.51"/><circle cx="209.2" cy="570.2" r="0.80" fill="#cdd8ff" opacity="0.76"/><circle cx="973.7" cy="982.2" r="0.50" fill="#9fb0e6" opacity="0.25"/><circle cx="1160.3" cy="837.3" r="0.50" fill="#9fb0e6" opacity="0.51"/><circle cx="772.0" cy="982.5" r="1.20" fill="#cdd8ff" opacity="0.19"/><circle cx="443.1" cy="979.7" r="0.80" fill="#cdd8ff" opacity="0.54"/><circle cx="853.3" cy="785.5" r="1.80" fill="#a9c0ff" opacity="0.35"/><circle cx="1476.5" cy="1059.2" r="0.50" fill="#ffffff" opacity="0.46"/><circle cx="194.6" cy="761.8" r="0.50" fill="#cdd8ff" opacity="0.32"/><circle cx="340.3" cy="669.8" r="0.50" fill="#a9c0ff" opacity="0.69"/><circle cx="228.8" cy="1052.7" r="1.80" fill="#cdd8ff" opacity="0.30"/><circle cx="637.2" cy="791.6" r="1.80" fill="#cdd8ff" opacity="0.40"/><circle cx="1130.1" cy="1126.1" r="0.50" fill="#a9c0ff" opacity="0.44"/><circle cx="886.5" cy="760.7" r="0.50" fill="#9fb0e6" opacity="0.21"/><circle cx="472.7" cy="1104.1" r="0.50" fill="#cdd8ff" opacity="0.79"/><circle cx="1554.7" cy="539.2" r="0.50" fill="#cdd8ff" opacity="0.18"/><circle cx="432.7" cy="555.5" r="0.80" fill="#a9c0ff" opacity="0.79"/><circle cx="649.5" cy="824.2" r="0.80" fill="#a9c0ff" opacity="0.50"/><circle cx="143.1" cy="508.0" r="0.80" fill="#cdd8ff" opacity="0.45"/><circle cx="430.3" cy="481.1" r="0.50" fill="#9fb0e6" opacity="0.33"/><circle cx="1370.0" cy="514.0" r="1.20" fill="#a9c0ff" opacity="0.47"/><circle cx="1590.9" cy="745.7" r="1.20" fill="#cdd8ff" opacity="0.59"/><circle cx="843.1" cy="627.4" r="0.50" fill="#cdd8ff" opacity="0.14"/><circle cx="289.8" cy="1085.3" r="0.80" fill="#cdd8ff" opacity="0.52"/><circle cx="463.9" cy="800.1" r="0.50" fill="#cdd8ff" opacity="0.39"/><circle cx="1591.2" cy="494.4" r="0.50" fill="#cdd8ff" opacity="0.50"/><circle cx="822.8" cy="632.1" r="0.80" fill="#ffffff" opacity="0.34"/><circle cx="1050.4" cy="830.3" r="1.20" fill="#a9c0ff" opacity="0.83"/><circle cx="1100.4" cy="1118.4" r="0.50" fill="#cdd8ff" opacity="0.73"/><circle cx="647.5" cy="699.4" r="0.50" fill="#cdd8ff" opacity="0.13"/><circle cx="1000.7" cy="1050.7" r="0.80" fill="#ffffff" opacity="0.19"/><circle cx="1392.9" cy="912.6" r="0.50" fill="#a9c0ff" opacity="0.32"/><circle cx="72.4" cy="592.3" r="0.50" fill="#a9c0ff" opacity="0.15"/><circle cx="1538.9" cy="1111.9" r="0.80" fill="#a9c0ff" opacity="0.32"/><circle cx="348.6" cy="590.8" r="0.50" fill="#a9c0ff" opacity="0.21"/><circle cx="804.4" cy="602.6" r="0.80" fill="#a9c0ff" opacity="0.08"/><circle cx="1307.3" cy="565.0" r="0.80" fill="#a9c0ff" opacity="0.43"/><circle cx="486.8" cy="623.7" r="0.80" fill="#cdd8ff" opacity="0.52"/><circle cx="1052.1" cy="942.6" r="0.50" fill="#ffffff" opacity="0.38"/><circle cx="239.1" cy="947.9" r="0.80" fill="#9fb0e6" opacity="0.18"/><circle cx="1003.7" cy="954.3" r="1.20" fill="#9fb0e6" opacity="0.25"/><circle cx="1204.6" cy="845.2" r="1.20" fill="#9fb0e6" opacity="0.16"/><circle cx="1276.7" cy="939.4" r="1.80" fill="#cdd8ff" opacity="0.60"/><circle cx="49.9" cy="557.8" r="0.50" fill="#ffffff" opacity="0.22"/><circle cx="1089.1" cy="792.9" r="0.50" fill="#9fb0e6" opacity="0.71"/><circle cx="1436.6" cy="530.7" r="0.80" fill="#ffffff" opacity="0.67"/><circle cx="403.5" cy="519.1" r="0.50" fill="#cdd8ff" opacity="0.66"/><circle cx="369.2" cy="899.0" r="0.80" fill="#cdd8ff" opacity="0.74"/><circle cx="766.4" cy="921.2" r="0.80" fill="#cdd8ff" opacity="0.60"/><circle cx="959.5" cy="689.0" r="0.80" fill="#9fb0e6" opacity="0.35"/><circle cx="908.4" cy="478.2" r="0.50" fill="#cdd8ff" opacity="0.34"/><circle cx="826.5" cy="776.7" r="0.80" fill="#9fb0e6" opacity="0.13"/><circle cx="318.8" cy="1115.6" r="1.80" fill="#ffffff" opacity="0.16"/><circle cx="122.3" cy="804.4" r="1.80" fill="#ffffff" opacity="0.85"/><circle cx="335.7" cy="1094.1" r="0.50" fill="#cdd8ff" opacity="0.56"/><circle cx="1196.0" cy="642.8" r="0.50" fill="#9fb0e6" opacity="0.57"/><circle cx="447.3" cy="544.4" r="0.50" fill="#ffffff" opacity="0.50"/><circle cx="630.5" cy="575.0" r="1.80" fill="#ffffff" opacity="0.63"/><circle cx="483.1" cy="562.9" r="0.50" fill="#a9c0ff" opacity="0.37"/><circle cx="2.8" cy="965.5" r="1.20" fill="#cdd8ff" opacity="0.23"/><circle cx="1140.8" cy="1065.0" r="0.50" fill="#ffffff" opacity="0.41"/><circle cx="624.3" cy="1044.2" r="0.50" fill="#a9c0ff" opacity="0.80"/><circle cx="1366.8" cy="655.2" r="0.50" fill="#cdd8ff" opacity="0.61"/><circle cx="398.9" cy="645.4" r="0.80" fill="#a9c0ff" opacity="0.28"/><circle cx="1256.2" cy="752.3" r="0.50" fill="#ffffff" opacity="0.68"/><circle cx="1461.5" cy="1090.9" r="0.80" fill="#cdd8ff" opacity="0.65"/><circle cx="1493.5" cy="741.2" r="0.80" fill="#a9c0ff" opacity="0.25"/><circle cx="776.9" cy="1071.9" r="0.80" fill="#ffffff" opacity="0.27"/><circle cx="549.9" cy="666.5" r="0.80" fill="#a9c0ff" opacity="0.83"/><circle cx="649.9" cy="627.5" r="0.80" fill="#cdd8ff" opacity="0.34"/><circle cx="267.7" cy="576.7" r="0.50" fill="#ffffff" opacity="0.78"/><circle cx="880.6" cy="769.0" r="0.50" fill="#ffffff" opacity="0.37"/><circle cx="223.4" cy="597.0" r="0.50" fill="#cdd8ff" opacity="0.39"/><circle cx="510.9" cy="713.1" r="1.20" fill="#cdd8ff" opacity="0.29"/><circle cx="1199.5" cy="742.4" r="0.50" fill="#ffffff" opacity="0.52"/><circle cx="432.4" cy="966.4" r="0.80" fill="#a9c0ff" opacity="0.55"/><circle cx="201.4" cy="802.2" r="0.80" fill="#cdd8ff" opacity="0.75"/><circle cx="148.2" cy="1061.9" r="0.50" fill="#ffffff" opacity="0.60"/><circle cx="1526.3" cy="1030.1" r="1.20" fill="#cdd8ff" opacity="0.17"/><circle cx="680.3" cy="974.0" r="1.20" fill="#ffffff" opacity="0.83"/><circle cx="0.3" cy="728.4" r="1.80" fill="#ffffff" opacity="0.73"/><circle cx="1555.6" cy="634.0" r="0.50" fill="#9fb0e6" opacity="0.26"/><circle cx="1555.0" cy="541.9" r="1.20" fill="#ffffff" opacity="0.64"/><circle cx="136.0" cy="982.7" r="0.50" fill="#9fb0e6" opacity="0.24"/><circle cx="1471.9" cy="896.0" r="0.50" fill="#a9c0ff" opacity="0.24"/><circle cx="845.2" cy="758.7" r="1.20" fill="#a9c0ff" opacity="0.12"/><circle cx="357.7" cy="866.7" r="0.50" fill="#ffffff" opacity="0.36"/><circle cx="445.8" cy="678.8" r="1.20" fill="#9fb0e6" opacity="0.32"/><circle cx="375.6" cy="633.1" r="1.80" fill="#a9c0ff" opacity="0.64"/><circle cx="88.5" cy="598.1" r="1.20" fill="#cdd8ff" opacity="0.60"/><circle cx="411.6" cy="910.5" r="1.80" fill="#cdd8ff" opacity="0.31"/><circle cx="634.2" cy="474.5" r="0.50" fill="#cdd8ff" opacity="0.74"/></g>
<g><circle cx="250" cy="630" r="4.2" fill="#9db4ff" filter="url(#g2)"/><circle cx="250" cy="630" r="2.0" fill="#ffffff"/><path d="M231,630 L269,630 M250,611 L250,649" stroke="#9db4ff" stroke-width="1.1" opacity="0.8"/></g>
<g><circle cx="1330" cy="668" r="3.5" fill="#ffd79a" filter="url(#g2)"/><circle cx="1330" cy="668" r="1.7" fill="#ffffff"/><path d="M1314,668 L1346,668 M1330,652 L1330,684" stroke="#ffd79a" stroke-width="1.1" opacity="0.8"/></g>
<g><circle cx="1185" cy="950" r="2.8" fill="#8fe6b3" filter="url(#g2)"/><circle cx="1185" cy="950" r="1.4" fill="#ffffff"/><path d="M1172,950 L1198,950 M1185,937 L1185,963" stroke="#8fe6b3" stroke-width="1.1" opacity="0.8"/></g>
<g><circle cx="430" cy="950" r="2.8" fill="#cdd8ff" filter="url(#g2)"/><circle cx="430" cy="950" r="1.4" fill="#ffffff"/><path d="M417,950 L443,950 M430,937 L430,963" stroke="#cdd8ff" stroke-width="1.1" opacity="0.8"/></g>
<g><circle cx="1410" cy="840" r="2.3" fill="#a9c0ff" filter="url(#g2)"/><circle cx="1410" cy="840" r="1.1" fill="#ffffff"/><path d="M1399,840 L1421,840 M1410,829 L1410,851" stroke="#a9c0ff" stroke-width="1.1" opacity="0.8"/></g>
<circle cx="800" cy="712" r="150" fill="#4f6fd0" opacity="0.30" filter="url(#g3)"/>
<g opacity="0.5" filter="url(#g1)"><circle cx="800" cy="712" r="132" fill="none" stroke="#7e9bff" stroke-width="3.2" stroke-linecap="round" stroke-dasharray="0.2 17"/></g><g opacity="0.92"><circle cx="800" cy="712" r="132" fill="none" stroke="#7e9bff" stroke-width="3.2" stroke-linecap="round" stroke-dasharray="0.2 17"/></g>
<line x1="800" y1="712" x2="800.0" y2="580.0" stroke="#6b8cff" stroke-width="1.2" opacity="0.16"/>
<circle cx="800.0" cy="580.0" r="13" fill="#7e9bff" opacity="0.55" filter="url(#g2)"/>
<circle cx="800.0" cy="580.0" r="7.5" fill="#7e9bff"/>
<circle cx="800.0" cy="580.0" r="3" fill="#ffffff" opacity="0.9"/>
<line x1="800" y1="712" x2="914.3" y2="778.0" stroke="#6b8cff" stroke-width="1.2" opacity="0.16"/>
<circle cx="914.3" cy="778.0" r="13" fill="#5ccb84" opacity="0.55" filter="url(#g2)"/>
<circle cx="914.3" cy="778.0" r="7.5" fill="#5ccb84"/>
<circle cx="914.3" cy="778.0" r="3" fill="#ffffff" opacity="0.9"/>
<line x1="800" y1="712" x2="685.7" y2="778.0" stroke="#6b8cff" stroke-width="1.2" opacity="0.16"/>
<circle cx="685.7" cy="778.0" r="13" fill="#f2bd52" opacity="0.55" filter="url(#g2)"/>
<circle cx="685.7" cy="778.0" r="7.5" fill="#f2bd52"/>
<circle cx="685.7" cy="778.0" r="3" fill="#ffffff" opacity="0.9"/>
<g opacity="0.7" filter="url(#g2)"><path d="M770,678 L834,712 L770,746" fill="none" stroke="#bcccff" stroke-width="13" stroke-linecap="round" stroke-linejoin="round"/></g><path d="M770,678 L834,712 L770,746" fill="none" stroke="#bcccff" stroke-width="13" stroke-linecap="round" stroke-linejoin="round"/>
<text x="800" y="948" text-anchor="middle" font-family="Avenir Next, Helvetica Neue, Arial, sans-serif"
      font-size="92" font-weight="600" letter-spacing="10" fill="#dfe8ff" filter="url(#g2)" opacity="0.55">AIWORKSTATION</text>
<text x="800" y="948" text-anchor="middle" font-family="Avenir Next, Helvetica Neue, Arial, sans-serif"
      font-size="92" font-weight="600" letter-spacing="10" fill="#f3f7ff">AIWORKSTATION</text>
<text x="800" y="1000" text-anchor="middle" font-family="Avenir Next, Helvetica Neue, Arial, sans-serif"
      font-size="22" font-weight="400" letter-spacing="6" fill="#93a6da">AN INFINITE CANVAS FOR YOUR AI AGENTS</text>
</svg>